<svg xmlns="http://www.w3.org/2000/svg" xmlns:xlink="http://www.w3.org/1999/xlink" id="Capa_1" x="0px" y="0px" viewBox="0 0 256.3 65.2" style="enable-background:new 0 0 256.3 65.2;" xml:space="preserve"><style type="text/css">	.st0{fill:#BD1714;}</style><g>	<g>		<g>			<rect x="173.3" y="14.7" class="st0" width="0.7" height="39.3"></rect>			<g>				<path class="st0" d="M190.8,18.8v2.4h2.9V22h-2.9v3.2h-0.9v-7.3h4.1v0.9H190.8z"></path>				<path class="st0" d="M200.7,19.6v5.6H200l-0.1-0.8c-0.5,0.6-1.3,1-2.2,1c-1.7,0-2.9-1.3-2.9-2.9c0-1.7,1.2-2.9,2.9-2.9     c0.9,0,1.7,0.4,2.2,1l0.1-0.9H200.7z M199.8,22.4c0-1.2-0.9-2.1-2.1-2.1c-1.2,0-2.1,0.9-2.1,2.1c0,1.2,0.9,2.1,2.1,2.1     C199,24.4,199.8,23.6,199.8,22.4z"></path>				<path class="st0" d="M202.1,22.4c0-1.7,1.3-2.9,2.9-2.9c1.3,0,2.4,0.8,2.7,2h-0.9c-0.3-0.7-1-1.2-1.8-1.2c-1.1,0-2,0.9-2,2.1     c0,1.2,0.9,2.1,2,2.1c0.8,0,1.5-0.4,1.8-1.2h0.9c-0.3,1.2-1.4,2-2.7,2C203.3,25.3,202.1,24,202.1,22.4z"></path>				<path class="st0" d="M208.8,22.8v-3.2h0.9v3.1c0,1.1,0.6,1.8,1.6,1.8c1,0,1.6-0.7,1.6-1.8v-3.1h0.9v3.2c0,1.5-1,2.5-2.5,2.5     C209.8,25.3,208.8,24.3,208.8,22.8z"></path>				<path class="st0" d="M215.5,17.6h0.9v7.6h-0.9V17.6z"></path>				<path class="st0" d="M221.1,24.4v0.8h-0.7c-1.2,0-1.9-0.7-1.9-2v-2.8h-1v-0.2l1.7-1.8h0.1v1.2h1.8v0.8h-1.8v2.8     c0,0.8,0.4,1.2,1.2,1.2H221.1z"></path>				<path class="st0" d="M227.7,19.6v5.6H227l-0.1-0.8c-0.5,0.6-1.3,1-2.2,1c-1.7,0-2.9-1.3-2.9-2.9c0-1.7,1.2-2.9,2.9-2.9     c0.9,0,1.7,0.4,2.2,1l0.1-0.9H227.7z M226.8,22.4c0-1.2-0.9-2.1-2.1-2.1c-1.2,0-2.1,0.9-2.1,2.1c0,1.2,0.9,2.1,2.1,2.1     C225.9,24.4,226.8,23.6,226.8,22.4z"></path>				<path class="st0" d="M234.9,17.6v7.6h-0.7l-0.1-0.8c-0.5,0.6-1.3,0.9-2.2,0.9c-1.7,0-2.9-1.3-2.9-2.9c0-1.7,1.2-2.9,2.9-2.9     c0.8,0,1.6,0.3,2.1,0.8v-2.7L234.9,17.6z M234,22.4c0-1.2-0.9-2.1-2.1-2.1c-1.2,0-2.1,0.9-2.1,2.1c0,1.2,0.9,2.1,2.1,2.1     C233.2,24.4,234,23.5,234,22.4z"></path>				<path class="st0" d="M244.8,17.6v7.6h-0.7l-0.1-0.8c-0.5,0.6-1.3,0.9-2.2,0.9c-1.7,0-2.9-1.3-2.9-2.9c0-1.7,1.2-2.9,2.9-2.9     c0.8,0,1.6,0.3,2.1,0.8v-2.7L244.8,17.6z M243.9,22.4c0-1.2-0.9-2.1-2.1-2.1c-1.2,0-2.1,0.9-2.1,2.1c0,1.2,0.9,2.1,2.1,2.1     C243.1,24.4,243.9,23.5,243.9,22.4z"></path>				<path class="st0" d="M251.7,22.7H247c0.1,1,0.9,1.7,2,1.7c0.8,0,1.4-0.4,1.7-1h0.9c-0.5,1.2-1.5,1.8-2.7,1.8     c-1.6,0-2.9-1.3-2.9-2.9c0-1.7,1.2-2.9,2.9-2.9c1.7,0,2.8,1.3,2.8,2.9C251.8,22.5,251.7,22.6,251.7,22.7z M247,21.9h3.9     c-0.2-1-0.9-1.6-1.9-1.6C247.9,20.3,247.2,20.9,247,21.9z"></path>				<path class="st0" d="M189.9,32.2h0.9v7.3h-0.9V32.2z"></path>				<path class="st0" d="M197.7,36.1v3.4h-0.9v-3.1c0-1.1-0.5-1.8-1.5-1.8c-1,0-1.7,0.8-1.7,1.9v3.1h-0.9v-5.6h0.6l0.2,0.9     c0.4-0.6,1.1-1,2-1C196.9,33.8,197.7,34.8,197.7,36.1z"></path>				<path class="st0" d="M204.6,33.9v4.8c0,1.8-1,2.9-2.7,2.9c-1.4,0-2.3-0.7-2.7-1.9h0.9c0.2,0.7,1,1.1,1.8,1.1     c1.1,0,1.9-0.7,1.9-2v-0.3c-0.5,0.5-1.2,0.8-2,0.8c-1.6,0-2.8-1.2-2.8-2.8c0-1.6,1.2-2.8,2.8-2.8c0.9,0,1.7,0.4,2.2,1l0.1-0.9     H204.6z M203.7,36.5c0-1.1-0.8-1.9-1.9-1.9c-1.1,0-1.9,0.8-1.9,1.9c0,1.1,0.8,1.9,1.9,1.9S203.7,37.6,203.7,36.5z"></path>				<path class="st0" d="M211.6,37h-4.8c0.1,1,0.9,1.7,2,1.7c0.8,0,1.4-0.4,1.7-1h0.9c-0.5,1.2-1.5,1.8-2.7,1.8     c-1.6,0-2.9-1.3-2.9-2.9c0-1.7,1.2-2.9,2.9-2.9c1.7,0,2.8,1.3,2.8,2.9C211.6,36.8,211.6,36.9,211.6,37z M206.8,36.2h3.9     c-0.2-1-0.9-1.6-1.9-1.6C207.8,34.6,207,35.2,206.8,36.2z"></path>				<path class="st0" d="M217.9,36.1v3.4H217v-3.1c0-1.1-0.5-1.8-1.5-1.8c-1,0-1.7,0.8-1.7,1.9v3.1h-0.9v-5.6h0.6l0.2,0.9     c0.4-0.6,1.1-1,2-1C217,33.8,217.9,34.8,217.9,36.1z"></path>				<path class="st0" d="M219.5,31.9h1v1h-1V31.9z M219.6,33.9h0.9v5.6h-0.9V33.9z"></path>				<path class="st0" d="M227.4,37h-4.8c0.1,1,0.9,1.7,2,1.7c0.8,0,1.4-0.4,1.7-1h0.9c-0.5,1.2-1.5,1.8-2.7,1.8     c-1.6,0-2.9-1.3-2.9-2.9c0-1.7,1.2-2.9,2.9-2.9c1.7,0,2.8,1.3,2.8,2.9C227.4,36.8,227.4,36.9,227.4,37z M222.7,36.2h3.9     c-0.2-1-0.9-1.6-1.9-1.6C223.6,34.6,222.9,35.2,222.7,36.2z"></path>				<path class="st0" d="M231.8,33.9v0.8h-0.6c-1,0-1.6,0.7-1.6,1.8v3h-0.9v-5.6h0.6l0.1,0.9c0.4-0.6,1-0.9,1.8-0.9H231.8z"></path>				<path class="st0" d="M232.8,33.9h0.9v5.6h-0.9V33.9z M233.3,31.7h0.9l-0.7,1.6h-0.7L233.3,31.7z"></path>				<path class="st0" d="M240.9,33.9v5.6h-0.7l-0.1-0.8c-0.5,0.6-1.3,1-2.2,1c-1.7,0-2.9-1.3-2.9-2.9c0-1.7,1.2-2.9,2.9-2.9     c0.9,0,1.7,0.4,2.2,1l0.1-0.9H240.9z M240,36.7c0-1.2-0.9-2.1-2.1-2.1c-1.2,0-2.1,0.9-2.1,2.1c0,1.2,0.9,2.1,2.1,2.1     C239.1,38.8,240,37.9,240,36.7z"></path>				<path class="st0" d="M250.4,33.9l-2.7,5.8c-0.6,1.3-1.1,1.8-2.2,1.8H245v-0.8h0.5c0.7,0,1-0.2,1.5-1.2l0.2-0.4l-2.5-5.2h1l2,4.2     l1.9-4.2H250.4z"></path>				<path class="st0" d="M194.3,52.1h-3.5l-0.7,1.7h-1l3-7.3h0.8l3.1,7.3h-1L194.3,52.1z M191.1,51.2h2.8l-1.4-3.4L191.1,51.2z"></path>				<path class="st0" d="M200.1,48.2V49h-0.6c-1,0-1.6,0.7-1.6,1.8v3h-0.9v-5.6h0.6l0.1,0.9c0.4-0.6,1-0.9,1.8-0.9H200.1z"></path>				<path class="st0" d="M206.5,48.2v7.6h-0.9v-2.7c-0.5,0.5-1.2,0.9-2.1,0.9c-1.7,0-2.9-1.3-2.9-2.9c0-1.7,1.2-2.9,2.9-2.9     c0.9,0,1.7,0.4,2.2,1l0.2-0.9H206.5z M205.6,51c0-1.2-0.9-2.1-2.1-2.1c-1.2,0-2.1,0.9-2.1,2.1c0,1.2,0.9,2.1,2.1,2.1     C204.7,53.1,205.6,52.2,205.6,51z"></path>				<path class="st0" d="M208.1,51.4v-3.2h0.9v3.1c0,1.1,0.6,1.8,1.6,1.8c1,0,1.6-0.7,1.6-1.8v-3.1h0.9v3.2c0,1.5-1,2.5-2.5,2.5     C209.1,53.9,208.1,52.9,208.1,51.4z"></path>				<path class="st0" d="M214.7,46.2h1v1h-1V46.2z M214.8,48.2h0.9v5.6h-0.9V48.2z"></path>				<path class="st0" d="M220.4,53v0.8h-0.7c-1.2,0-1.9-0.7-1.9-2V49h-1v-0.2l1.7-1.8h0.1v1.2h1.8V49h-1.8v2.8     c0,0.8,0.4,1.2,1.2,1.2H220.4z"></path>				<path class="st0" d="M226.8,51.3H222c0.1,1,0.9,1.7,2,1.7c0.8,0,1.4-0.4,1.7-1h0.9c-0.5,1.2-1.5,1.8-2.7,1.8     c-1.6,0-2.9-1.3-2.9-2.9c0-1.7,1.2-2.9,2.9-2.9c1.7,0,2.8,1.3,2.8,2.9C226.8,51.1,226.8,51.2,226.8,51.3z M222,50.5h3.9     c-0.2-1-0.9-1.6-1.9-1.6C222.9,48.9,222.2,49.6,222,50.5z"></path>				<path class="st0" d="M227.6,51c0-1.7,1.3-2.9,2.9-2.9c1.3,0,2.4,0.8,2.7,2h-0.9c-0.3-0.7-1-1.2-1.8-1.2c-1.1,0-2,0.9-2,2.1     c0,1.2,0.9,2.1,2,2.1c0.8,0,1.5-0.4,1.8-1.2h0.9c-0.3,1.2-1.4,2-2.7,2C228.9,53.9,227.6,52.7,227.6,51z"></path>				<path class="st0" d="M237.4,53v0.8h-0.7c-1.2,0-1.9-0.7-1.9-2V49h-1v-0.2l1.7-1.8h0.1v1.2h1.8V49h-1.8v2.8     c0,0.8,0.4,1.2,1.2,1.2H237.4z"></path>				<path class="st0" d="M238.5,51.4v-3.2h0.9v3.1c0,1.1,0.6,1.8,1.6,1.8c1,0,1.6-0.7,1.6-1.8v-3.1h0.9v3.2c0,1.5-1,2.5-2.5,2.5     C239.5,53.9,238.5,52.9,238.5,51.4z"></path>				<path class="st0" d="M248.2,48.2V49h-0.6c-1,0-1.6,0.7-1.6,1.8v3h-0.9v-5.6h0.6l0.1,0.9c0.4-0.6,1-0.9,1.8-0.9H248.2z"></path>				<path class="st0" d="M254.6,48.2v5.6h-0.7l-0.1-0.8c-0.5,0.6-1.3,1-2.2,1c-1.7,0-2.9-1.3-2.9-2.9c0-1.7,1.2-2.9,2.9-2.9     c0.9,0,1.7,0.4,2.2,1l0.1-0.9H254.6z M253.7,51c0-1.2-0.9-2.1-2.1-2.1c-1.2,0-2.1,0.9-2.1,2.1c0,1.2,0.9,2.1,2.1,2.1     C252.9,53.1,253.7,52.2,253.7,51z"></path>			</g>		</g>	</g>	<g>		<g>			<g>				<g>					<path class="st0" d="M68.6,46.4v-2h0.6v1.9c0,0.6,0.3,1,0.9,1c0.5,0,0.9-0.3,0.9-0.9v-2h0.6v1.9c0,1-0.6,1.5-1.5,1.5      C69.2,47.9,68.6,47.4,68.6,46.4z"></path>					<path class="st0" d="M73.7,44.4h0.6l1.8,2.4v-2.4h0.6v3.4h-0.5l-1.9-2.4v2.4h-0.6V44.4z"></path>					<path class="st0" d="M79,44.4h0.6v3.4H79V44.4z"></path>					<path class="st0" d="M81.6,44.4h0.7l1,2.6l1-2.6H85l-1.4,3.4H83L81.6,44.4z"></path>					<path class="st0" d="M86.9,44.4h2.5V45h-1.9v0.9h1.7v0.5h-1.7v0.9h2v0.5h-2.6V44.4z"></path>					<path class="st0" d="M91.6,44.4h1.5c0.4,0,0.8,0.1,1,0.3c0.2,0.2,0.3,0.4,0.3,0.7v0c0,0.6-0.3,0.9-0.8,1l0.9,1.3h-0.7l-0.8-1.2      h-0.8v1.2h-0.6V44.4z M93.1,46.1c0.4,0,0.7-0.2,0.7-0.6v0c0-0.4-0.3-0.6-0.7-0.6h-0.9v1.1H93.1z"></path>					<path class="st0" d="M96.3,47.3l0.4-0.4c0.3,0.3,0.7,0.4,1.1,0.4c0.4,0,0.6-0.2,0.6-0.4v0c0-0.2-0.1-0.4-0.8-0.5      c-0.7-0.2-1.1-0.4-1.1-1v0c0-0.6,0.5-1,1.2-1c0.5,0,0.9,0.2,1.2,0.4l-0.3,0.5c-0.3-0.2-0.6-0.4-0.9-0.4c-0.4,0-0.6,0.2-0.6,0.4      v0c0,0.3,0.2,0.4,0.8,0.5c0.7,0.2,1.1,0.4,1.1,1v0c0,0.6-0.5,1-1.2,1C97.2,47.9,96.7,47.7,96.3,47.3z"></path>					<path class="st0" d="M101,44.4h0.6v3.4H101V44.4z"></path>					<path class="st0" d="M103.9,44.4h1.3c1.1,0,1.8,0.7,1.8,1.7v0c0,1-0.7,1.7-1.8,1.7h-1.3V44.4z M104.5,45v2.3h0.7      c0.7,0,1.2-0.5,1.2-1.2v0c0-0.7-0.5-1.2-1.2-1.2H104.5z"></path>					<path class="st0" d="M110.1,44.4h0.6l1.5,3.4h-0.6l-0.3-0.8h-1.6l-0.4,0.8h-0.6L110.1,44.4z M110.9,46.5l-0.6-1.4l-0.6,1.4      H110.9z"></path>					<path class="st0" d="M114.1,44.4h1.3c1.1,0,1.8,0.7,1.8,1.7v0c0,1-0.7,1.7-1.8,1.7h-1.3V44.4z M114.7,45v2.3h0.7      c0.7,0,1.2-0.5,1.2-1.2v0c0-0.7-0.5-1.2-1.2-1.2H114.7z"></path>					<path class="st0" d="M122.1,44.4h1.3c1.1,0,1.8,0.7,1.8,1.7v0c0,1-0.7,1.7-1.8,1.7h-1.3V44.4z M122.7,45v2.3h0.7      c0.7,0,1.2-0.5,1.2-1.2v0c0-0.7-0.5-1.2-1.2-1.2H122.7z"></path>					<path class="st0" d="M127.3,44.4h2.5V45h-1.9v0.9h1.7v0.5h-1.7v0.9h2v0.5h-2.6V44.4z"></path>					<path class="st0" d="M68.4,53.8l0.4-0.4c0.3,0.3,0.7,0.4,1.1,0.4c0.4,0,0.6-0.2,0.6-0.4v0c0-0.2-0.1-0.4-0.8-0.5      c-0.7-0.2-1.1-0.4-1.1-1v0c0-0.6,0.5-1,1.2-1c0.5,0,0.9,0.2,1.2,0.4l-0.3,0.5c-0.3-0.2-0.6-0.4-0.9-0.4c-0.4,0-0.6,0.2-0.6,0.4      v0c0,0.3,0.2,0.4,0.8,0.5c0.7,0.2,1.1,0.4,1.1,1v0c0,0.6-0.5,1-1.2,1C69.3,54.4,68.8,54.2,68.4,53.8z"></path>					<path class="st0" d="M74.3,50.9h0.6l1.5,3.4h-0.6l-0.3-0.8h-1.6l-0.4,0.8h-0.6L74.3,50.9z M75.2,53l-0.6-1.4L74,53H75.2z"></path>					<path class="st0" d="M78.3,50.9h0.6l1.8,2.4v-2.4h0.6v3.4h-0.5l-1.9-2.4v2.4h-0.6V50.9z"></path>					<path class="st0" d="M86.4,50.9H87l1,1.6l1-1.6h0.6v3.4h-0.6v-2.5l-1.1,1.6h0L87,51.9v2.4h-0.6V50.9z"></path>					<path class="st0" d="M93.2,50.9h0.6l1.5,3.4h-0.6l-0.3-0.8h-1.6l-0.4,0.8h-0.6L93.2,50.9z M94.1,53l-0.6-1.4L92.9,53H94.1z"></path>					<path class="st0" d="M97.2,50.9h1.5c0.4,0,0.8,0.1,1,0.3c0.2,0.2,0.3,0.4,0.3,0.7v0c0,0.6-0.3,0.9-0.8,1l0.9,1.3h-0.7l-0.8-1.2      h-0.8v1.2h-0.6V50.9z M98.7,52.6c0.4,0,0.7-0.2,0.7-0.6v0c0-0.4-0.3-0.6-0.7-0.6h-0.9v1.1H98.7z"></path>					<path class="st0" d="M103,51.5h-1.1v-0.6h2.8v0.6h-1.1v2.9H103V51.5z"></path>					<path class="st0" d="M106.7,50.9h0.6v3.4h-0.6V50.9z M107.3,49.9l0.5,0.2l-0.6,0.5h-0.5L107.3,49.9z"></path>					<path class="st0" d="M109.6,50.9h0.6l1.8,2.4v-2.4h0.6v3.4h-0.5l-1.9-2.4v2.4h-0.6V50.9z"></path>					<path class="st0" d="M117.7,50.9h1.3c1.1,0,1.8,0.7,1.8,1.7v0c0,1-0.7,1.7-1.8,1.7h-1.3V50.9z M118.3,51.5v2.3h0.7      c0.7,0,1.2-0.5,1.2-1.2v0c0-0.7-0.5-1.2-1.2-1.2H118.3z"></path>					<path class="st0" d="M122.9,50.9h2.5v0.5h-1.9v0.9h1.7v0.5h-1.7v0.9h2v0.5h-2.6V50.9z"></path>					<path class="st0" d="M130.4,50.9h1.4c0.8,0,1.3,0.5,1.3,1.1v0c0,0.8-0.6,1.2-1.4,1.2H131v1.1h-0.6V50.9z M131.7,52.7      c0.5,0,0.7-0.3,0.7-0.6v0c0-0.4-0.3-0.6-0.7-0.6H131v1.2H131.7z"></path>					<path class="st0" d="M134.9,52.6L134.9,52.6c0-1,0.7-1.8,1.8-1.8c1.1,0,1.8,0.8,1.8,1.8v0c0,1-0.7,1.8-1.8,1.8      C135.6,54.4,134.9,53.6,134.9,52.6z M137.8,52.6L137.8,52.6c0-0.7-0.5-1.2-1.2-1.2c-0.7,0-1.2,0.5-1.2,1.2v0      c0,0.7,0.5,1.2,1.2,1.2C137.3,53.8,137.8,53.3,137.8,52.6z"></path>					<path class="st0" d="M140.5,50.9h1.5c0.4,0,0.8,0.1,1,0.3c0.2,0.2,0.3,0.4,0.3,0.7v0c0,0.6-0.3,0.9-0.8,1l0.9,1.3h-0.7      l-0.8-1.2h-0.8v1.2h-0.6V50.9z M142,52.6c0.4,0,0.7-0.2,0.7-0.6v0c0-0.4-0.3-0.6-0.7-0.6h-0.9v1.1H142z"></path>					<path class="st0" d="M145.4,50.9h1.5c0.4,0,0.8,0.1,1,0.3c0.2,0.2,0.3,0.4,0.3,0.7v0c0,0.6-0.3,0.9-0.8,1l0.9,1.3h-0.7      l-0.8-1.2h-0.8v1.2h-0.6V50.9z M146.9,52.6c0.4,0,0.7-0.2,0.7-0.6v0c0-0.4-0.3-0.6-0.7-0.6h-0.9v1.1H146.9z"></path>					<path class="st0" d="M150.4,50.9h2.5v0.5H151v0.9h1.7v0.5H151v0.9h2v0.5h-2.6V50.9z"></path>					<path class="st0" d="M154.8,53.8l0.4-0.4c0.3,0.3,0.7,0.4,1.1,0.4c0.4,0,0.6-0.2,0.6-0.4v0c0-0.2-0.1-0.4-0.8-0.5      c-0.7-0.2-1.1-0.4-1.1-1v0c0-0.6,0.5-1,1.2-1c0.5,0,0.9,0.2,1.2,0.4l-0.3,0.5c-0.3-0.2-0.6-0.4-0.9-0.4c-0.4,0-0.6,0.2-0.6,0.4      v0c0,0.3,0.2,0.4,0.8,0.5c0.7,0.2,1.1,0.4,1.1,1v0c0,0.6-0.5,1-1.2,1C155.7,54.4,155.2,54.2,154.8,53.8z"></path>				</g>			</g>			<path class="st0" d="M71.2,18v12.5c0,0.6,0.1,1.3,0.3,2c0.2,0.7,0.5,1.3,0.9,1.9c0.4,0.6,1,1.1,1.6,1.4c0.7,0.4,1.5,0.6,2.5,0.6    c1,0,1.8-0.2,2.5-0.6c0.7-0.4,1.2-0.9,1.6-1.4c0.4-0.6,0.7-1.2,0.9-1.9c0.2-0.7,0.3-1.4,0.3-2V18h2.8v12.9c0,1.2-0.2,2.3-0.6,3.3    c-0.4,1-1,1.8-1.7,2.6c-0.7,0.7-1.6,1.3-2.6,1.7c-1,0.4-2,0.6-3.2,0.6c-1.1,0-2.2-0.2-3.2-0.6c-1-0.4-1.8-1-2.6-1.7    C70,36,69.4,35.2,69,34.2c-0.4-1-0.6-2.1-0.6-3.3V18H71.2z"></path>			<path class="st0" d="M105.7,32.8c0-1.2-0.3-2.2-0.8-2.9c-0.5-0.7-1.1-1.2-1.9-1.6c-0.7-0.4-1.6-0.7-2.5-0.9    c-0.9-0.2-1.7-0.5-2.4-0.8c-0.7-0.3-1.4-0.6-1.9-1.1c-0.5-0.4-0.7-1.1-0.7-1.9c0-0.3,0.1-0.6,0.2-1c0.1-0.3,0.3-0.7,0.6-1    c0.3-0.3,0.7-0.6,1.2-0.7c0.5-0.2,1.2-0.3,1.9-0.3c0.8,0,1.5,0.2,2.2,0.5c0.6,0.3,1.1,0.7,1.5,1.3l0,0l2.4-2.1l0,0    c-0.8-0.9-1.7-1.5-2.7-1.8c-1-0.3-2-0.4-3-0.4c-0.1,0-0.2,0-0.3,0c0,0,0,0,0,0c0,0,0,0,0,0c-1.3,0-2.3,0.2-3.2,0.6    c-0.9,0.4-1.6,0.8-2.2,1.4c-0.6,0.5-1,1.2-1.2,1.8c-0.3,0.7-0.4,1.3-0.4,1.9c0,1,0.1,1.8,0.4,2.5c0.1,0.2,0.2,0.4,0.3,0.6    c0.5,0.8,1.1,1.4,1.9,1.8c0.7,0.5,1.6,0.8,2.5,1.1c0.9,0.3,1.7,0.5,2.4,0.8c0.7,0.3,1.4,0.6,1.9,1c0.5,0.4,0.7,1,0.7,1.7    c0,0.5-0.1,1-0.4,1.4c-0.2,0.4-0.6,0.8-1,1c-0.4,0.3-0.8,0.5-1.3,0.6c-0.5,0.1-1,0.2-1.4,0.2c-0.8,0-1.6-0.2-2.4-0.5    c-0.8-0.3-1.4-0.9-1.9-1.6l0,0l-2.4,2l0,0c0.7,0.9,1.7,1.6,2.9,2.1c0.9,0.3,1.8,0.6,2.8,0.6c0.3,0,0.7,0,1,0c1,0,1.9-0.1,2.8-0.4    c0.4-0.1,0.8-0.3,1.2-0.5c0.4-0.2,0.8-0.5,1.1-0.7c0.6-0.5,1.2-1.2,1.5-2C105.5,34.7,105.7,33.8,105.7,32.8    C105.7,32.8,105.7,32.8,105.7,32.8C105.7,32.8,105.7,32.8,105.7,32.8z"></path>			<path class="st0" d="M113.5,18h4.2l6.6,15.8h0.1L131,18h4.2V39h-2.8V21.7h-0.1L125.2,39h-1.7l-7.1-17.4h-0.1V39h-2.8V18z"></path>			<path class="st0" d="M143.4,18h7.3c1.3,0,2.4,0.2,3.3,0.5c0.9,0.4,1.5,0.8,2,1.4c0.5,0.6,0.8,1.2,1,1.9c0.2,0.7,0.3,1.4,0.3,2    c0,0.6-0.1,1.3-0.3,2c-0.2,0.7-0.5,1.3-1,1.9c-0.5,0.6-1.2,1-2,1.4c-0.9,0.4-2,0.5-3.3,0.5h-4.5V39h-2.8V18z M146.3,27.1h3.7    c0.5,0,1.1,0,1.6-0.1c0.5-0.1,1-0.2,1.4-0.5c0.4-0.2,0.8-0.6,1-1c0.3-0.4,0.4-1,0.4-1.7c0-0.7-0.1-1.3-0.4-1.7    c-0.3-0.4-0.6-0.8-1-1c-0.4-0.2-0.9-0.4-1.4-0.5c-0.5-0.1-1.1-0.1-1.6-0.1h-3.7V27.1z"></path>		</g>		<g>			<g>				<g>					<g>						<g>							<path class="st0" d="M4,16.4v-0.7c0,0,0-0.1,0.1-0.1l4.3-0.9c0,0,0.1,0,0.1,0.1v0.7c0,0,0,0.1-0.1,0.1L5.6,16v0l2.8,0.4        c0,0,0.1,0,0.1,0.1v0.7c0,0,0,0.1-0.1,0.1L4,16.4C4,16.4,4,16.4,4,16.4z"></path>							<path class="st0" d="M4,21l4.3,0c0,0,0.1,0,0.1,0.1V23c0,0,0,0.1-0.1,0.1H7.7c0,0-0.1,0-0.1-0.1v-1.1c0,0,0,0,0,0h-1        c0,0,0,0,0,0v1c0,0,0,0.1-0.1,0.1H5.9c0,0-0.1,0-0.1-0.1v-1c0,0,0,0,0,0h-1c0,0,0,0,0,0V23c0,0,0,0.1-0.1,0.1l-0.6,0        C4,23.1,4,23,4,23L4,21C4,21,4,21,4,21z"></path>							<path class="st0" d="M4,29.3l0-0.8c0,0,0-0.1,0.1-0.1l1.7-0.5v-0.2c0,0,0,0,0,0l-1.6,0c0,0-0.1,0-0.1-0.1v-0.7        c0,0,0-0.1,0.1-0.1l4.3,0c0,0,0.1,0,0.1,0.1v1.1c0,0.9-0.5,1.3-1.4,1.3c-0.5,0-0.9-0.2-1.1-0.5L4,29.3C4,29.3,4,29.3,4,29.3z         M6.5,27.9c0,0.2,0,0.3,0.1,0.4c0.1,0.1,0.2,0.1,0.5,0.1c0.2,0,0.4,0,0.5-0.1c0.1-0.1,0.1-0.2,0.1-0.4v-0.2c0,0,0,0,0,0        l-1.1,0c0,0,0,0,0,0V27.9z"></path>							<path class="st0" d="M4,33l4.3,0c0,0,0.1,0,0.1,0.1v0.7c0,0,0,0.1-0.1,0.1l-4.3,0c0,0-0.1,0-0.1-0.1L4,33C4,33.1,4,33,4,33z"></path>							<path class="st0" d="M4,39.2l0-0.7c0,0,0-0.1,0.1-0.1l3.6-0.1c0,0,0,0,0,0l0-0.7c0,0,0-0.1,0.1-0.1l0.6,0c0,0,0.1,0,0.1,0.1        l0.1,2.3c0,0,0,0.1-0.1,0.1l-0.6,0c0,0-0.1,0-0.1-0.1l0-0.7c0,0,0,0,0,0L4,39.2C4,39.3,4,39.3,4,39.2z"></path>							<path class="st0" d="M5,44.1l4.3-1c0,0,0.1,0,0.1,0l0.3,0.7c0,0,0,0.1,0,0.1l-3.5,2.7c0,0-0.1,0-0.1,0L5.8,46        c0,0,0-0.1,0-0.1l0.7-0.5l-0.4-0.8l-0.8,0.2c0,0-0.1,0-0.1,0L5,44.1C5,44.2,5,44.1,5,44.1z M6.8,44.5L7.1,45l1.3-0.9l0,0        L6.8,44.5z"></path>							<path class="st0" d="M11.6,50.9c-0.3,0.3-0.6,0.5-0.9,0.5c-0.3,0-0.6-0.1-0.9-0.4c-0.6-0.5-0.6-1.1,0-1.7c0,0,0.1,0,0.1,0        l0.6,0.4c0,0,0,0.1,0,0.1c-0.1,0.2-0.2,0.3-0.2,0.4c0,0.1,0,0.2,0.1,0.3c0.1,0.1,0.2,0.1,0.3,0.1c0.1,0,0.2-0.1,0.3-0.2        c0.1-0.1,0.2-0.3,0.2-0.4c0-0.1,0-0.2-0.1-0.4l-0.1-0.3c-0.1-0.3-0.2-0.6-0.1-0.8c0-0.2,0.2-0.5,0.4-0.7        c0.6-0.6,1.1-0.6,1.7-0.1c0.5,0.5,0.6,1.1,0.1,1.6c0,0-0.1,0-0.1,0L12.3,49c0,0,0-0.1,0-0.1c0.2-0.2,0.2-0.4,0.1-0.6        c-0.2-0.2-0.3-0.1-0.6,0.1c-0.1,0.1-0.2,0.2-0.2,0.3c0,0.1,0,0.2,0.1,0.4l0.1,0.3c0.1,0.3,0.2,0.6,0.1,0.8        C12,50.4,11.8,50.7,11.6,50.9z"></path>							<path class="st0" d="M17.8,57.2l2.2-3.7c0,0,0.1,0,0.1,0l0.6,0.4c0,0,0,0.1,0,0.1L18.9,57c0,0,0,0,0,0.1l1,0.6        c0,0,0,0.1,0,0.1l-0.3,0.6c0,0-0.1,0-0.1,0L17.8,57.2C17.8,57.2,17.7,57.2,17.8,57.2z"></path>							<path class="st0" d="M23.1,60l1.8-3.9c0,0,0-0.1,0.1,0l0.7,0.3c0,0,0.1,0,0,0.1l-1.8,3.9c0,0,0,0.1-0.1,0L23.1,60        C23.1,60.1,23.1,60.1,23.1,60z"></path>							<path class="st0" d="M28.3,62l0.4-4.3c0,0,0-0.1,0.1-0.1l1.1,0.1c0.4,0,0.7,0.2,0.9,0.4S31,58.7,31,59c0,0.5-0.2,0.8-0.6,0.9        l0,0c0.4,0.1,0.5,0.5,0.5,1.1c0,0.5-0.2,0.8-0.4,1c-0.2,0.2-0.6,0.2-1,0.2L28.3,62C28.3,62.1,28.3,62.1,28.3,62z M29.2,61.4        C29.2,61.4,29.2,61.4,29.2,61.4l0.2,0.1c0.2,0,0.3,0,0.4-0.1c0.1-0.1,0.1-0.2,0.2-0.5c0-0.2,0-0.4-0.1-0.5        c-0.1-0.1-0.2-0.1-0.4-0.2l-0.2,0c0,0,0,0,0,0L29.2,61.4z M29.4,59.6l0.2,0c0.2,0,0.3,0,0.4-0.1c0.1-0.1,0.1-0.2,0.1-0.4        c0-0.2,0-0.4,0-0.4c-0.1-0.1-0.2-0.1-0.3-0.1l-0.2,0c0,0,0,0,0,0L29.4,59.6C29.4,59.5,29.4,59.6,29.4,59.6z"></path>							<path class="st0" d="M35.6,61.1l-1.7-4c0,0,0-0.1,0-0.1l1.8-0.8c0,0,0.1,0,0.1,0l0.3,0.6c0,0,0,0.1,0,0.1l-1,0.4        c0,0,0,0,0,0.1l0.4,0.9c0,0,0,0,0.1,0l0.9-0.4c0,0,0.1,0,0.1,0l0.3,0.6c0,0,0,0.1,0,0.1l-0.9,0.4c0,0,0,0,0,0.1l0.4,0.9        c0,0,0,0,0.1,0l1-0.4c0,0,0.1,0,0.1,0l0.3,0.6c0,0,0,0.1,0,0.1L35.6,61.1C35.6,61.2,35.6,61.2,35.6,61.1z"></path>							<path class="st0" d="M43.3,57.3l-0.7,0.4c0,0-0.1,0-0.1,0l-1.3-1.2L41,56.6c0,0,0,0,0,0.1l0.8,1.4c0,0,0,0.1,0,0.1l-0.6,0.4        c0,0-0.1,0-0.1,0l-2.2-3.7c0,0,0-0.1,0-0.1l0.9-0.5c0.7-0.4,1.4-0.3,1.8,0.5c0.3,0.5,0.3,0.9,0.1,1.2L43.3,57.3        C43.3,57.2,43.3,57.2,43.3,57.3z M40.8,55.8c0.1-0.1,0.2-0.2,0.3-0.3c0-0.1,0-0.3-0.1-0.5c-0.1-0.2-0.2-0.3-0.3-0.4        s-0.2,0-0.4,0.1l-0.2,0.1c0,0,0,0,0,0.1l0.6,1c0,0,0,0,0.1,0L40.8,55.8z"></path>							<path class="st0" d="M46.5,55.1l-1.9-4c0,0,0-0.1,0-0.1l0.6-0.5c0,0,0.1,0,0.1,0l3.4,2.8c0,0,0,0.1,0,0.1l-0.6,0.4        c0,0-0.1,0-0.1,0l-0.6-0.5l-0.7,0.5l0.4,0.7c0,0,0,0.1,0,0.1L46.5,55.1C46.5,55.1,46.5,55.1,46.5,55.1z M46.4,53.2l0.5-0.4        l-1.2-1l0,0L46.4,53.2z"></path>							<path class="st0" d="M51.7,50.6l-3.2-2.9c0,0,0-0.1,0-0.1l0.8-0.8c0.3-0.3,0.6-0.5,0.8-0.5c0.3,0,0.5,0.1,0.8,0.4        c0.4,0.3,0.5,0.7,0.4,1l0,0c0.3-0.2,0.7-0.1,1.1,0.3c0.3,0.3,0.5,0.6,0.5,0.9c0,0.3-0.2,0.6-0.5,0.9L51.7,50.6        C51.7,50.7,51.7,50.7,51.7,50.6z M50.4,48.2l0.1-0.1c0.1-0.1,0.2-0.2,0.2-0.3c0-0.1-0.1-0.2-0.3-0.4        c-0.2-0.1-0.3-0.2-0.4-0.2c-0.1,0-0.2,0.1-0.3,0.2l-0.1,0.1c0,0,0,0,0,0.1L50.4,48.2C50.4,48.3,50.4,48.3,50.4,48.2z         M51.8,49.5C51.8,49.5,51.8,49.5,51.8,49.5l0.2-0.1c0.1-0.1,0.2-0.3,0.2-0.4c0-0.1-0.1-0.2-0.3-0.4c-0.2-0.2-0.3-0.2-0.4-0.2        c-0.1,0-0.2,0.1-0.4,0.2l-0.1,0.1c0,0,0,0,0,0.1L51.8,49.5z"></path>							<path class="st0" d="M55.7,44.8l-4-1.6c0,0-0.1,0,0-0.1l0.3-0.7c0,0,0-0.1,0.1,0l4,1.6c0,0,0.1,0,0,0.1L55.7,44.8        C55.8,44.8,55.8,44.8,55.7,44.8z"></path>							<path class="st0" d="M57.1,37.9l0,0.7c0,0,0,0.1-0.1,0.1l-3.6,0c0,0,0,0,0,0l0,0.7c0,0,0,0.1-0.1,0.1l-0.6,0        c0,0-0.1,0-0.1-0.1l0-2.3c0,0,0-0.1,0.1-0.1l0.6,0c0,0,0.1,0,0.1,0.1v0.7c0,0,0,0,0,0L57.1,37.9        C57.1,37.8,57.1,37.9,57.1,37.9z"></path>							<path class="st0" d="M57.1,27.6v0.7c0,0,0,0.1-0.1,0.1l-4.3,0.9c0,0-0.1,0-0.1-0.1v-0.7c0,0,0-0.1,0.1-0.1l2.8-0.5v0        l-2.8-0.4c0,0-0.1,0-0.1-0.1v-0.7c0,0,0-0.1,0.1-0.1L57.1,27.6C57.1,27.5,57.1,27.6,57.1,27.6z"></path>							<path class="st0" d="M57.2,21.9c0,0.6-0.3,1-0.8,1.1c-0.1,0-0.2,0.1-0.4,0.1c-0.2,0-0.5,0-1.1,0c-0.6,0-0.9,0-1.1,0        s-0.3,0-0.4-0.1c-0.5-0.2-0.8-0.5-0.8-1.1c0-0.6,0.3-1,0.8-1.1c0.1,0,0.2-0.1,0.4-0.1c0.2,0,0.5,0,1.1,0c0.6,0,0.9,0,1.1,0        c0.2,0,0.3,0,0.4,0.1C56.9,20.9,57.2,21.3,57.2,21.9z M56.4,21.9c0-0.2-0.1-0.3-0.2-0.3c-0.1,0-0.5,0-1.3,0        c-0.8,0-1.2,0-1.3,0c-0.1,0-0.2,0.1-0.2,0.3c0,0.2,0.1,0.3,0.2,0.3c0.1,0,0.5,0,1.3,0c0.8,0,1.2,0,1.3,0        C56.3,22.2,56.4,22.1,56.4,21.9z"></path>							<path class="st0" d="M55.8,14.6c0.5,0,0.8,0.1,1,0.3c0.2,0.2,0.3,0.5,0.3,0.9c0,0.8-0.4,1.2-1.2,1.2c0,0-0.1,0-0.1-0.1        l-0.1-0.7c0,0,0-0.1,0.1-0.1c0.2,0,0.4,0,0.4-0.1c0.1-0.1,0.1-0.2,0.1-0.3c0-0.1,0-0.2-0.1-0.3c-0.1-0.1-0.2-0.1-0.4-0.1        s-0.3,0-0.4,0.1c-0.1,0.1-0.2,0.2-0.2,0.3l-0.1,0.3c-0.1,0.3-0.3,0.5-0.5,0.7c-0.2,0.1-0.5,0.2-0.8,0.2        c-0.8,0-1.2-0.4-1.2-1.2c0-0.7,0.4-1.1,1.1-1.2c0,0,0.1,0,0.1,0.1l0.1,0.7c0,0,0,0.1-0.1,0.1c-0.3,0-0.5,0.1-0.5,0.4        c0,0.2,0.1,0.3,0.4,0.3c0.2,0,0.3,0,0.4-0.1c0.1-0.1,0.1-0.2,0.2-0.3l0.1-0.3c0.1-0.3,0.3-0.5,0.5-0.7        C55.1,14.7,55.4,14.6,55.8,14.6z"></path>						</g>					</g>				</g>			</g>		</g>		<g>			<g>				<g>					<path class="st0" d="M32.4,3l-1.9,2.1L28.6,3l0.1,2.8l-2.8-0.1L28,7.6l-2.1,1.9l2.8-0.1l-0.1,2.8l1.9-2.1l1.9,2.1l-0.1-2.8      l2.8,0.1L33,7.6l2.1-1.9l-2.8,0.1L32.4,3L32.4,3z"></path>				</g>				<path class="st0" d="M49,14.8c-3.1,0-36.8,0-36.9,0c0,0.3,0,21.9,0,23.6c0,1.6,0.4,3,1.2,4.4c0.6,1,1.4,1.8,2.2,2.6     c0.5,0.5,1,1,1.6,1.4c3.9,3.3,8.2,5.7,13,7.5c0.1,0.1,0.3,0.1,0.4,0.1v0c0,0,0,0,0,0c0,0,0,0,0,0v0c0.1,0,0.3,0,0.4-0.1     c4.8-1.8,9.2-4.2,13-7.5c0.5-0.5,1.1-0.9,1.6-1.4c0.8-0.8,1.6-1.6,2.2-2.6c0.8-1.3,1.2-2.8,1.2-4.4C49,36.7,49,14.9,49,14.8z      M45.2,41.2c-0.4,0.6-1,1.3-1.7,1.9c-0.5,0.5-1.1,1-1.6,1.5L30.6,33.3v17.9c-4.4-1.7-8.1-3.9-11.3-6.6l11.3-11.3H15.2     c0-6.3,0-12.3,0-15.4h0l15.4,15.4V17.9H46L30.6,33.3H46c0,1.7,0,3.4,0,5.1C46,39.4,45.7,40.3,45.2,41.2z"></path>			</g>		</g>	</g></g></svg>